<mxfile host="app.diagrams.net" modified="2024-06-25T11:00:47.545Z" agent="Mozilla/5.0 (Windows NT 10.0; Win64; x64) AppleWebKit/537.36 (KHTML, like Gecko) Chrome/126.0.0.0 Safari/537.36 Edg/126.0.0.0" etag="Xd_nL3_gbiRTZUvYHsrY" version="24.6.2" type="github">
  <diagram name="第 1 页" id="4tOD4rYvVnY52M2dfjG-">
    <mxGraphModel dx="1213" dy="1915" grid="1" gridSize="10" guides="1" tooltips="1" connect="1" arrows="1" fold="1" page="1" pageScale="1" pageWidth="827" pageHeight="1169" math="0" shadow="0">
      <root>
        <mxCell id="0" />
        <mxCell id="1" parent="0" />
        <mxCell id="fJpbkuMN4-vTxd0OAs-w-5" value="Cell1" style="text;html=1;align=center;verticalAlign=middle;resizable=0;points=[];autosize=1;strokeColor=none;fillColor=none;fontSize=25;" vertex="1" parent="1">
          <mxGeometry x="240" y="210" width="80" height="40" as="geometry" />
        </mxCell>
        <mxCell id="fJpbkuMN4-vTxd0OAs-w-6" value="Cell2" style="text;html=1;align=center;verticalAlign=middle;resizable=0;points=[];autosize=1;strokeColor=none;fillColor=none;fontSize=25;" vertex="1" parent="1">
          <mxGeometry x="540" y="450" width="80" height="40" as="geometry" />
        </mxCell>
        <mxCell id="fJpbkuMN4-vTxd0OAs-w-18" value="" style="rounded=0;whiteSpace=wrap;html=1;dashed=1;" vertex="1" parent="1">
          <mxGeometry x="420" y="280" width="100" height="240" as="geometry" />
        </mxCell>
        <mxCell id="fJpbkuMN4-vTxd0OAs-w-19" value="" style="rounded=0;whiteSpace=wrap;html=1;dashed=1;" vertex="1" parent="1">
          <mxGeometry x="320" y="520" width="100" height="240" as="geometry" />
        </mxCell>
        <mxCell id="fJpbkuMN4-vTxd0OAs-w-20" value="" style="ellipse;whiteSpace=wrap;html=1;aspect=fixed;" vertex="1" parent="1">
          <mxGeometry x="460" y="380" width="20" height="20" as="geometry" />
        </mxCell>
        <mxCell id="fJpbkuMN4-vTxd0OAs-w-23" value="" style="rounded=0;whiteSpace=wrap;html=1;fillColor=#d5e8d4;strokeColor=#82b366;" vertex="1" parent="1">
          <mxGeometry x="120" y="280" width="200" height="240" as="geometry" />
        </mxCell>
        <mxCell id="fJpbkuMN4-vTxd0OAs-w-24" value="" style="rounded=0;whiteSpace=wrap;html=1;fillColor=#d5e8d4;strokeColor=#82b366;" vertex="1" parent="1">
          <mxGeometry x="320" y="280" width="100" height="240" as="geometry" />
        </mxCell>
        <mxCell id="fJpbkuMN4-vTxd0OAs-w-25" value="边界" style="text;html=1;align=center;verticalAlign=middle;resizable=0;points=[];autosize=1;strokeColor=none;fillColor=none;fontSize=20;" vertex="1" parent="1">
          <mxGeometry x="340" y="295" width="60" height="40" as="geometry" />
        </mxCell>
        <mxCell id="fJpbkuMN4-vTxd0OAs-w-26" value="" style="ellipse;whiteSpace=wrap;html=1;aspect=fixed;fillColor=#ffcccc;strokeColor=#36393d;" vertex="1" parent="1">
          <mxGeometry x="350" y="340" width="20" height="20" as="geometry" />
        </mxCell>
        <mxCell id="fJpbkuMN4-vTxd0OAs-w-27" value="" style="rounded=0;whiteSpace=wrap;html=1;fillColor=#fff2cc;strokeColor=#d6b656;" vertex="1" parent="1">
          <mxGeometry x="420" y="520" width="100" height="240" as="geometry" />
        </mxCell>
        <mxCell id="fJpbkuMN4-vTxd0OAs-w-28" value="" style="rounded=0;whiteSpace=wrap;html=1;fillColor=#fff2cc;strokeColor=#d6b656;" vertex="1" parent="1">
          <mxGeometry x="520" y="520" width="200" height="240" as="geometry" />
        </mxCell>
        <mxCell id="fJpbkuMN4-vTxd0OAs-w-29" value="边界" style="text;html=1;align=center;verticalAlign=middle;resizable=0;points=[];autosize=1;strokeColor=none;fillColor=none;fontSize=20;" vertex="1" parent="1">
          <mxGeometry x="440" y="535" width="60" height="40" as="geometry" />
        </mxCell>
        <mxCell id="fJpbkuMN4-vTxd0OAs-w-30" value="" style="ellipse;whiteSpace=wrap;html=1;aspect=fixed;fillColor=#ffcccc;strokeColor=#36393d;" vertex="1" parent="1">
          <mxGeometry x="480" y="620" width="20" height="20" as="geometry" />
        </mxCell>
        <mxCell id="fJpbkuMN4-vTxd0OAs-w-32" value="" style="ellipse;whiteSpace=wrap;html=1;aspect=fixed;" vertex="1" parent="1">
          <mxGeometry x="350" y="580" width="20" height="20" as="geometry" />
        </mxCell>
        <mxCell id="fJpbkuMN4-vTxd0OAs-w-39" value="" style="rounded=0;whiteSpace=wrap;html=1;fillColor=#d5e8d4;strokeColor=#82b366;" vertex="1" parent="1">
          <mxGeometry x="120" y="-40" width="300" height="240" as="geometry" />
        </mxCell>
        <mxCell id="fJpbkuMN4-vTxd0OAs-w-40" value="" style="rounded=0;whiteSpace=wrap;html=1;fillColor=#fff2cc;strokeColor=#d6b656;" vertex="1" parent="1">
          <mxGeometry x="420" y="-40" width="300" height="240" as="geometry" />
        </mxCell>
      </root>
    </mxGraphModel>
  </diagram>
</mxfile>
